<svg width="439" height="440" viewBox="0 0 439 440" fill="none" xmlns="http://www.w3.org/2000/svg">
<path d="M439 220C439 341.503 340.727 440 219.5 440C177 440 177 387 219 387C311.784 387 387 311.784 387 219C387 126.216 311.784 51 219 51C126.216 51 51 126.216 51 219C51 257 0 257 0 220C0 98.4974 98.2735 0 219.5 0C340.727 0 439 98.4974 439 220Z" fill="white"/>
<path d="M366 219.5C366 300.962 300.186 367 219 367C72 367 72 367 72 219.5C72 138.038 137.814 72 219 72C300.186 72 366 138.038 366 219.5Z" fill="white"/>
</svg>
