<svg width="654" height="147" viewBox="0 0 654 147" fill="none" xmlns="http://www.w3.org/2000/svg">
<path d="M147 73.5C147 114.093 114.093 147 73.5 147C59.2688 147 59.2688 129.293 73.3326 129.293C104.401 129.293 129.588 104.164 129.588 73.1659C129.588 42.1676 104.401 17.0386 73.3326 17.0386C42.2637 17.0386 17.0774 42.1676 17.0774 73.1659C17.0774 85.8614 0 85.8614 0 73.5C0 32.9071 32.9071 0 73.5 0C114.093 0 147 32.9071 147 73.5Z" fill="white"/>
<path d="M122.556 73.333C122.556 100.549 100.518 122.611 73.3326 122.611C24.1093 122.611 24.1093 122.611 24.1093 73.333C24.1093 46.1172 46.1473 24.0545 73.3326 24.0545C100.518 24.0545 122.556 46.1172 122.556 73.333Z" fill="white"/>
<path d="M243.662 130.114V113.858C252.679 113.858 259.918 106.619 259.918 97.475C259.918 88.458 252.679 81.219 243.662 81.219H242.392L229.438 94.173V107H213.182V20.132H229.438V71.059L258.648 41.976L270.205 53.406L256.235 67.376C268.046 72.329 276.174 84.14 276.174 97.475C276.174 115.509 261.569 130.114 243.662 130.114Z" fill="white"/>
<path d="M314.775 130.114V113.858C323.792 113.858 331.031 106.492 331.031 97.602L314.775 107C296.868 107 282.263 92.395 282.263 74.488V41.976H298.519V74.488C298.519 82.362 304.361 88.839 311.092 90.363L331.031 78.806V41.976H347.287V97.475C347.287 115.509 332.682 130.114 314.775 130.114Z" fill="white"/>
<path d="M418.352 107C375.045 107 353.328 93.284 353.328 65.725C353.328 43.627 367.933 24.704 387.872 18.862V36.261C376.823 41.595 369.584 52.771 369.584 65.725C369.584 79.314 380.379 87.442 402.096 89.855V41.976H418.352V107Z" fill="white"/>
<path d="M424.394 107V20.132H440.65V51.374L456.906 41.976C474.813 41.976 489.418 56.581 489.418 74.488C489.418 92.395 474.813 107 456.906 107H424.394ZM440.65 90.744H456.906C465.923 90.744 473.162 83.505 473.162 74.488C473.162 66.614 467.32 60.137 460.589 58.613L440.65 70.17V90.744Z" fill="white"/>
<path d="M495.459 58.232V41.976H511.715V58.232H495.459ZM495.459 107V64.328H511.715V107H495.459Z" fill="white"/>
<path d="M550.295 107C532.388 107 517.783 92.395 517.783 74.488C517.783 56.581 532.388 41.976 550.295 41.976C568.202 41.976 582.807 56.581 582.807 74.488C582.807 92.395 568.202 107 550.295 107ZM550.295 90.744C559.312 90.744 566.551 83.505 566.551 74.488C566.551 65.471 559.312 58.232 550.295 58.232C541.278 58.232 534.039 65.471 534.039 74.488C534.039 83.505 541.278 90.744 550.295 90.744Z" fill="white"/>
<path d="M619.329 130.114V112.715C630.378 107.381 637.617 96.205 637.617 83.251C637.617 69.662 626.822 61.534 605.105 59.121V107H588.849V41.976C632.156 41.976 653.873 55.692 653.873 83.251C653.873 105.349 639.268 124.272 619.329 130.114Z" fill="white"/>
</svg>
